  0
SECTION
  2
HEADER
  9
$ACADVER
  1
AC1009
  9
$INSBASE
 10
0.0
 20
0.0
 30
0.0
  9
$EXTMIN
 10
-52.4999999951328
 20
-1.39577943647495e-09
 30
0.0
  9
$EXTMAX
 10
145.499999999996
 20
218.064064608136
 30
0.0
  9
$LIMMIN
 10
0.0
 20
0.0
  9
$LIMMAX
 10
12.0000
 20
 9.0000
9
$ORTHOMODE
70
0
9
$REGENMODE
70
1
9
$FILLMODE
70
1
9
$QTEXTMODE
70
0
9
$MIRRTEXT
70
1
9
$DRAGMODE
70
2
9
$LTSCALE
40
1.0
9
$OSMODE
70
0
9
$ATTMODE
70
1
9
$TEXTSIZE
40
0.2
9
$TRACEWID
40
0.05
9
$TEXTSTYLE
7
STANDARD
9
$CLAYER
8
0
9
$CELTYPE
6
BYLAYER
9
$CECOLOR
62
256
9
$DIMSCALE
40
1.0
9
$DIMASZ
40
0.18
9
$DIMEXO
40
0.0625
9
$DIMDLI
40
0.38
9
$DIMRND
40
0.0
9
$DIMDLE
40
0.0
9
$DIMEXE
40
0.18
9
$DIMTP
40
0.0
9
$DIMTM
40
0.0
9
$DIMTXT
40
0.18
9
$DIMCEN
40
0.09
9
$DIMTSZ
40
0.0
9
$DIMTOL
70
0
9
$DIMLIM
70
0
9
$DIMTIH
70
1
9
$DIMTOH
70
1
9
$DIMSE1
70
0
9
$DIMSE2
70
0
9
$DIMTAD
70
0
9
$DIMZIN
70
0
9
$DIMBLK
1

9
$DIMASO
70
1
9
$DIMSHO
70
1
9
$DIMPOST
1

9
$DIMAPOST
1

9
$DIMALT
70
0
9
$DIMALTD
70
2
9
$DIMALTF
40
25.4
9
$DIMLFAC
40
1.0
9
$DIMTOFL
70
0
9
$DIMTVP
40
0.0
9
$DIMTIX
70
0
9
$DIMSOXD
70
0
9
$DIMSAH
70
0
9
$DIMBLK1
1

9
$DIMBLK2
1

9
$DIMSTYLE
2
*UNNAMED
9
$DIMCLRD
70
0
9
$DIMCLRE
70
0
9
$DIMCLRT
70
0
9
$DIMTFAC
40
1.0
9
$DIMGAP
40
0.09
9
$LUNITS
70
2
9
$LUPREC
70
4
9
$SKETCHINC
40
0.1
9
$FILLETRAD
40
0.0
9
$AUNITS
70
0
9
$AUPREC
70
0
9
$MENU
1
acad
9
$ELEVATION
40
0.0
9
$PELEVATION
40
0.0
9
$THICKNESS
40
0.0
9
$LIMCHECK
70
0
9
$BLIPMODE
70
1
9
$CHAMFERA
40
0.0
9
$CHAMFERB
40
0.0
9
$SKPOLY
70
0
9
$TDCREATE
40
2449214.701881018
9
$TDUPDATE
40
2449214.701881018
9
$TDINDWG
40
0.0000000000
9
$TDUSRTIMER
40
0.0000000000
9
$USRTIMER
70
1
9
$ANGBASE
50
0.0
9
$ANGDIR
70
0
9
$PDMODE
70
0
9
$PDSIZE
40
0.0
9
$PLINEWID
40
0.0
9
$COORDS
70
1
9
$SPLFRAME
70
0
9
$SPLINETYPE
70
6
9
$SPLINESEGS
70
8
9
$ATTDIA
70
0
9
$ATTREQ
70
1
9
$HANDLING
70
0
9
$HANDSEED
5
0
9
$SURFTAB1
70
6
9
$SURFTAB2
70
6
9
$SURFTYPE
70
6
9
$SURFU
70
6
9
$SURFV
70
6
9
$UCSNAME
2

9
$UCSORG
10
0.0
20
0.0
30
0.0
9
$UCSXDIR
10
1.0
20
0.0
30
0.0
9
$UCSYDIR
10
0.0
20
1.0
30
0.0
9
$PUCSNAME
2

9
$PUCSORG
10
0.0
20
0.0
30
0.0
9
$PUCSXDIR
10
1.0
20
0.0
30
0.0
9
$PUCSYDIR
10
0.0
20
1.0
30
0.0
9
$USERI1
70
0
9
$USERI2
70
0
9
$USERI3
70
0
9
$USERI4
70
0
9
$USERI5
70
0
9
$USERR1
40
0.0
9
$USERR2
40
0.0
9
$USERR3
40
0.0
9
$USERR4
40
0.0
9
$USERR5
40
0.0
9
$WORLDVIEW
70
1
9
$SHADEDGE
70
3
9
$SHADEDIF
70
70
9
$TILEMODE
70
1
9
$MAXACTVP
70
16
9
$PINSBASE
10
0.0
20
0.0
30
0.0
9
$PLIMCHECK
70
0
  9
$PEXTMIN
 10
1.0000000000000000E+020
 20
1.0000000000000000E+020
 30
1.0000000000000000E+020
  9
$PEXTMAX
 10
-1.0000000000000000E+020
 20
-1.0000000000000000E+020
 30
-1.0000000000000000E+020
  9
$PLIMMIN
 10
-52.4999999951328
 20
-1.39577943647495e-09
  9
$PLIMMAX
 10
12.0000
 20
 9.0000
  9
$UNITMODE
 70
0
  9
$VISRETAIN
 70
1
  9
$PLINEGEN
 70
0
  9
$PSLTSCALE
 70
1
  0
ENDSEC
  0
SECTION
  2
TABLES
  0
TABLE
  2
VPORT
 70
3
  0
VPORT
  2
*ACTIVE
 70
0
 10
0.0
 20
0.0
 11
1.0
 21
1.0
 12
46.5000000024317
 22
109.03203230337
 13
0.0
 23
0.0
 14
1.0
 24
1.0
 15
1.0
 25
1.0
 16
0.0
 26
0.0
 36
1.0
 17
0.0
 27
0.0
 37
0.0
 40
218.064064609532
 41
0.907990045721977
 42
50.0
 43
0.0
 44
0.0
 50
0.0
 51
0.0
 71
0
 72
100
 73
1
 74
3
 75
0
 76
0
 77
0
 78
0
  0
ENDTAB
0
TABLE
2
LTYPE
70
1
0
LTYPE
2
CONTINUOUS
70
64
3
Solid line
72
65
73
0
40
0.0
0
ENDTAB
  0
TABLE
  2
LAYER
 70
2
  0
LAYER
  2
Slice
 70
0
 62
7
  6
CONTINUOUS
  0
ENDTAB
0
TABLE
2
STYLE
70
1
0
STYLE
2
STANDARD
70
64
40
0.0
41
1.0
50
0.0
71
0
42
0.2
3
txt
4

0
ENDTAB
0
TABLE
2
VIEW
70
0
0
ENDTAB
0
TABLE
2
UCS
70
0
0
ENDTAB
0
TABLE
2
APPID
70
1
0
APPID
2
ACAD
70
64
0
ENDTAB
0
TABLE
2
DIMSTYLE
70
0
0
ENDTAB
0
ENDSEC
0
SECTION
2
BLOCKS
0
ENDSEC
  0
SECTION
  2
ENTITIES
  0
LINE
  5
0
  8
Slice
 10
-45.7381862726736
 20
97.000000001261
 30
0
 11
-42.0999999955928
 21
97.0000000010958
 31
0
  0
LINE
  5
0
  8
Slice
 10
-43.5000000032805
 20
91.6929712640778
 30
0
 11
-43.5000000034095
 21
95.2999999987287
 31
0
  0
LINE
  5
0
  8
Slice
 10
40.3999999939799
 20
132.500000001018
 30
0
 11
40.3999999954792
 21
99.5000000010185
 31
0
  0
LINE
  5
0
  8
Slice
 10
-42.1000000034703
 20
96.9999999987788
 30
0
 11
-45.7381862805511
 21
96.9999999986486
 31
0
  0
ARC
  5
0
  8
Slice
 10
100.308442464171
 20
9.64662375821622
 30
0
 40
1.69999999999998
 50
-89.999999997951
 51
-59.9999999979499
  0
LINE
  5
0
  8
Slice
 10
134.94836599931
 20
31.2625736928315
 30
0
 11
135.64118632232
 21
31.662573692863
 31
0
  0
LINE
  5
0
  8
Slice
 10
91.5134295152377
 20
111.494090507761
 30
0
 11
95.8634295152377
 21
103.959669494836
 31
0
  0
ARC
  5
0
  8
Slice
 10
97.1322209801038
 20
22.362058213112
 30
0
 40
1.69999999999999
 50
30.0000000020494
 51
120.00000000205
  0
ARC
  5
0
  8
Slice
 10
67.3723415433723
 20
97.5562268700472
 30
0
 40
1.70000000000002
 50
119.999999997397
 51
150.999999997394
  0
ARC
  5
0
  8
Slice
 10
90.0411863287852
 20
110.64409050775
 30
0
 40
1.70000000002202
 50
29.9999999999999
 51
119.999999997396
  0
LINE
  5
0
  8
Slice
 10
106.873557304519
 20
8.88956876547054
 30
0
 11
105.054464165836
 21
12.0403305050398
 31
0
  0
LINE
  5
0
  8
Slice
 10
142.313429509181
 20
23.5059094937521
 30
0
 11
137.963429509181
 21
31.0403305066767
 31
0
  0
ARC
  5
0
  8
Slice
 10
85.3054515489259
 20
9.64662375767947
 30
0
 40
1.7
 50
-149.99999999795
 51
-89.9999999979496
  0
LINE
  5
0
  8
Slice
 10
-35.7707477315964
 20
77.8499999990052
 30
0
 11
-43.2722431896836
 21
90.842971264086
 31
0
  0
LINE
  5
0
  8
Slice
 10
89.1911863288521
 20
112.116333694222
 30
0
 11
66.5223415434392
 21
99.0284700565194
 31
0
  0
LINE
  5
0
  8
Slice
 10
40.3999999939799
 20
132.500000001018
 30
0
 11
40.3999999939435
 21
133.300000001019
 31
0
  0
ARC
  5
0
  8
Slice
 10
42.0999999939435
 20
133.300000001096
 30
0
 40
1.70000000041733
 50
90
 51
180.000000002602
  0
ARC
  5
0
  8
Slice
 10
-37.8999999954792
 20
99.5000000009049
 30
0
 40
2.49999999999999
 50
179.999999997397
 51
269.999999997397
  0
ARC
  5
0
  8
Slice
 10
37.8999999939799
 20
132.500000000905
 30
0
 40
2.49999999999999
 50
2.60290488465987e-09
 51
90.0000000000002
  0
ARC
  5
0
  8
Slice
 10
-42.1000000035311
 20
98.6999999987788
 30
0
 40
1.70000000000002
 50
-89.9999999979515
 51
2.04992361963882e-09
  0
LINE
  5
0
  8
Slice
 10
-29.2000000027548
 20
76.9999999992403
 30
0
 11
-34.2985045451324
 21
76.9999999990579
 31
0
  0
LINE
  5
0
  8
Slice
 10
-27.5000000034095
 20
95.2999999993012
 30
0
 11
-27.5000000028156
 21
78.6999999993011
 31
0
  0
ARC
  5
0
  8
Slice
 10
-37.8999999954792
 20
99.5000000009049
 30
0
 40
2.5
 50
179.999999997397
 51
269.999999997397
  0
ARC
  5
0
  8
Slice
 10
-45.7381862806119
 20
98.6999999986487
 30
0
 40
1.70000000000002
 50
-148.99999999795
 51
-89.9999999979506
  0
ARC
  5
0
  8
Slice
 10
-41.8000000034095
 20
95.2999999987895
 30
0
 40
1.70000000000002
 50
90.0000000020502
 51
180.000000002049
  0
LINE
  5
0
  8
Slice
 10
-41.8000000034703
 20
96.9999999987895
 30
0
 11
-29.2000000034703
 21
96.9999999992404
 31
0
  0
LINE
  5
0
  8
Slice
 10
65.2767073566484
 20
84.3374263095169
 30
0
 11
65.9695276796941
 21
84.7374263094854
 31
0
  0
LINE
  5
0
  8
Slice
 10
97.9634295152196
 20
100.322362798973
 30
0
 11
101.91342951522
 21
93.4807621090761
 31
0
  0
LINE
  5
0
  8
Slice
 10
94.5483660053302
 20
101.237426308187
 30
0
 11
95.241186328376
 21
101.637426308156
 31
0
  0
LINE
  5
0
  8
Slice
 10
65.0544641700779
 20
81.3223628000659
 30
0
 11
69.004464169767
 21
74.4807621099894
 31
0
  0
LINE
  5
0
  8
Slice
 10
65.8854880412728
 20
98.3804032245336
 30
0
 11
61.1207607162184
 21
89.78460759021
 31
0
  0
LINE
  5
0
  8
Slice
 10
72.4195276791865
 20
73.5656986003731
 30
0
 11
100.998366004823
 21
90.0656985990747
 31
0
  0
LINE
  5
0
  8
Slice
 10
94.5483660053298
 20
101.237426308187
 30
0
 11
65.9695276796941
 21
84.7374263094855
 31
0
  0
LINE
  5
0
  8
Slice
 10
105.676707352164
 20
14.3625736915016
 30
0
 11
106.369527675173
 21
14.7625736915331
 31
0
  0
LINE
  5
0
  8
Slice
 10
135.863429509199
 20
34.6776372025398
 30
0
 11
131.913429509199
 21
41.5192378924369
 31
0
  0
LINE
  5
0
  8
Slice
 10
99.9195276746657
 20
25.9343014000593
 30
0
 11
128.498365998803
 21
42.4343014013577
 31
0
  0
LINE
  5
0
  8
Slice
 10
102.954464165671
 20
15.677637200839
 30
0
 11
99.0044641653597
 21
22.5192378905566
 31
0
  0
LINE
  5
0
  8
Slice
 10
61.1353710318458
 20
88.1104312357905
 30
0
 11
62.9544641702431
 21
84.959669496056
 31
0
  0
LINE
  5
0
  8
Slice
 10
134.94836599931
 20
31.2625736928313
 30
0
 11
106.369527675173
 21
14.7625736915331
 31
0
  0
ARC
  5
0
  8
Slice
 10
136.491186322386
 20
30.1903305064681
 30
0
 40
1.70000000041733
 50
29.9999999999996
 51
120.000000002603
  0
ARC
  5
0
  8
Slice
 10
67.2195276795957
 20
82.5723627999676
 30
0
 40
2.49999999999999
 50
119.999999997397
 51
209.999999997397
  0
ARC
  5
0
  8
Slice
 10
99.748366004921
 20
92.2307621085926
 30
0
 40
2.50000000000001
 50
-60.0000000026029
 51
30
  0
ARC
  5
0
  8
Slice
 10
62.607614218318
 20
88.9604312357236
 30
0
 40
1.70000000000004
 50
150.999999997398
 51
209.999999997397
  0
ARC
  5
0
  8
Slice
 10
95.7983660052319
 20
99.0723627986691
 30
0
 40
2.50000000060811
 50
29.9999999999996
 51
119.999999997397
  0
ARC
  5
0
  8
Slice
 10
94.3911863284428
 20
103.109669494628
 30
0
 40
1.7
 50
-60.0000000026017
 51
30.0000000000002
  0
LINE
  5
0
  8
Slice
 10
118.142672447639
 20
7.86830477221134
 30
0
 11
108.316131400048
 21
8.03982768377019
 31
0
  0
ARC
  5
0
  8
Slice
 10
71.1695276792849
 20
75.730762109891
 30
0
 40
2.5
 50
-150.000000002603
 51
-60.0000000026023
  0
LINE
  5
0
  8
Slice
 10
141.691186322796
 20
21.1836663073462
 30
0
 11
119.022341538572
 21
8.09580266758357
 31
0
  0
ARC
  5
0
  8
Slice
 10
129.748365998901
 20
40.2692378919534
 30
0
 40
2.50000000096707
 50
29.9999999999997
 51
120.000000002603
  0
ARC
  5
0
  8
Slice
 10
145.499999999996
 20
0.499999998604476
 30
0
 40
0.500000000000256
 50
-179.999999999506
 51
-90.0000000000033
  0
ARC
  5
0
  8
Slice
 10
64.4267073567153
 20
85.8096694959891
 30
0
 40
1.69999999999999
 50
-150.000000002604
 51
-60.0000000026024
  0
ARC
  5
0
  8
Slice
 10
144.499999999846
 20
18.7186583111465
 30
0
 40
0.500000000000284
 50
4.85276311078702e-10
 51
30.0000000020493
  0
ARC
  5
0
  8
Slice
 10
-29.2000000034095
 20
95.2999999992403
 30
0
 40
1.70000000000001
 50
2.05040257375552e-09
 51
90.0000000020498
  0
ARC
  5
0
  8
Slice
 10
140.841186323902
 20
22.6559094929319
 30
0
 40
1.69999999999999
 50
-59.9999999979515
 51
29.9999999994469
  0
LINE
  5
0
  8
Slice
 10
141.691186323955
 20
21.1836663065287
 30
0
 11
119.022341539605
 21
8.09580266698505
 31
0
  0
ARC
  5
0
  8
Slice
 10
118.172341539552
 20
9.5680458533882
 30
0
 40
1.69999999999997
 50
-90.9999999979471
 51
-59.9999999979504
  0
LINE
  5
0
  8
Slice
 10
118.14267244867
 20
7.8683047716213
 30
0
 11
108.31613140108
 21
8.03982768327506
 31
0
  0
ARC
  5
0
  8
Slice
 10
108.345800491963
 20
9.73956876504198
 30
0
 40
1.69999999999996
 50
-149.99999999795
 51
-90.9999999979494
  0
LINE
  5
0
  8
Slice
 10
106.87355730556
 20
8.88956876498932
 30
0
 11
105.054464166907
 21
12.0403305045761
 31
0
  0
ARC
  5
0
  8
Slice
 10
106.52670735331
 20
12.8903305046288
 30
0
 40
1.70000000000001
 50
120.00000000205
 51
210.00000000205
  0
LINE
  5
0
  8
Slice
 10
105.676707353257
 20
14.3625736910319
 30
0
 11
135.64118632358
 21
31.662573692104
 31
0
  0
ARC
  5
0
  8
Slice
 10
136.491186323632
 20
30.1903305057009
 30
0
 40
1.6999999993153
 50
29.9999999994467
 51
120.00000000205
  0
ARC
  5
0
  8
Slice
 10
-45.7381862725963
 20
98.7000000012611
 30
0
 40
1.70000000000005
 50
-149.000000002601
 51
-90.0000000026029
  0
ARC
  5
0
  8
Slice
 10
-41.8000000032804
 20
91.6929712641386
 30
0
 40
1.70000000000004
 50
-179.999999997951
 51
-149.999999997951
  0
LINE
  5
0
  8
Slice
 10
100.308442464231
 20
7.94662375821623
 30
0
 11
85.3054515489867
 21
7.94662375767943
 31
0
  0
LINE
  5
0
  8
Slice
 10
104.282220980547
 20
9.97789493925029
 30
0
 11
101.158442464223
 21
8.17438057181307
 31
0
  0
LINE
  5
0
  8
Slice
 10
81.9061992775264
 20
15.5343013990008
 30
0
 11
96.2822209800512
 21
23.8343013995151
 31
0
  0
ARC
  5
0
  8
Slice
 10
53.5561992757696
 20
64.6379417925642
 30
0
 40
1.69999999999997
 50
-149.99999999795
 51
-59.9999999979501
  0
LINE
  5
0
  8
Slice
 10
63.1044641643071
 20
84.6998618805897
 30
0
 11
69.4044641646975
 21
73.7879417931312
 31
0
  0
LINE
  5
0
  8
Slice
 10
57.6584424615277
 20
83.518590699503
 30
0
 11
60.7822209778513
 21
85.3221050669402
 31
0
  0
LINE
  5
0
  8
Slice
 10
-37.8999999939799
 20
135.000000001513
 30
0
 11
-29.9999999939799
 21
135.000000001513
 31
0
  0
ARC
  5
0
  8
Slice
 10
140.841186322729
 20
22.6559094937411
 30
0
 40
1.70000000000002
 50
-59.9999999973969
 51
29.9999999999997
  0
ARC
  5
0
  8
Slice
 10
118.172341538505
 20
9.56804585397852
 30
0
 40
1.69999999999997
 50
-90.9999999973943
 51
-59.9999999973977
  0
LINE
  5
0
  8
Slice
 10
-50.7999999939435
 20
135.000000001513
 30
0
 11
-42.0999999939435
 21
135.000000001513
 31
0
  0
LINE
  5
0
  8
Slice
 10
-40.3999999955155
 20
98.7000000010185
 30
0
 11
-40.3999999954792
 21
99.5000000010185
 31
0
  0
LINE
  5
0
  8
Slice
 10
-52.4999999939435
 20
133.300000001568
 30
0
 11
-52.4999999951328
 21
107.124272724103
 31
0
  0
LINE
  5
0
  8
Slice
 10
-37.8999999955928
 20
97.0000000009049
 30
0
 11
-29.9999999955928
 21
97.000000000546
 31
0
  0
LINE
  5
0
  8
Slice
 10
-27.4999999954792
 20
99.5000000004324
 30
0
 11
-27.4999999939799
 21
132.500000000432
 31
0
  0
LINE
  5
0
  8
Slice
 10
-40.3999999939799
 20
132.500000001018
 30
0
 11
-40.3999999954792
 21
99.5000000010185
 31
0
  0
LINE
  5
0
  8
Slice
 10
52.0839560893665
 20
63.7879417925115
 30
0
 11
49.5347038180197
 21
68.2033762474296
 31
0
  0
ARC
  5
0
  8
Slice
 10
61.6322209779039
 20
83.849861880537
 30
0
 40
1.70000000000001
 50
30.0000000020497
 51
120.00000000205
  0
ARC
  5
0
  8
Slice
 10
82.7561992775791
 20
14.0620582125976
 30
0
 40
1.69999999999999
 50
120.00000000205
 51
210.00000000205
  0
ARC
  5
0
  8
Slice
 10
133.698365999212
 20
33.4276372022358
 30
0
 40
2.5
 50
-59.9999999973968
 51
29.9999999999997
  0
ARC
  5
0
  8
Slice
 10
-29.2000000028156
 20
78.6999999992403
 30
0
 40
1.69999999999997
 50
-89.9999999979502
 51
2.04992361963878e-09
  0
ARC
  5
0
  8
Slice
 10
-34.2985045451932
 20
78.6999999990579
 30
0
 40
1.70000000000007
 50
-149.999999997951
 51
-89.9999999979506
  0
ARC
  5
0
  8
Slice
 10
94.3911863210236
 20
103.109669502844
 30
0
 40
1.70000000000002
 50
-59.9999999979499
 51
29.9999999994461
  0
LINE
  5
0
  8
Slice
 10
95.2411863210762
 20
101.637426316441
 30
0
 11
65.2767073507536
 21
84.3374263153692
 31
0
  0
ARC
  5
0
  8
Slice
 10
64.4267073507009
 20
85.8096695017723
 30
0
 40
1.70000000000001
 50
-149.999999997952
 51
-59.99999999795
  0
LINE
  5
0
  8
Slice
 10
62.9544641642978
 20
84.9596695017197
 30
0
 11
61.1353710256447
 21
88.1104312413065
 31
0
  0
ARC
  5
0
  8
Slice
 10
62.6076142120478
 20
88.9604312413592
 30
0
 40
1.70000000000003
 50
151.00000000205
 51
210.00000000205
  0
LINE
  5
0
  8
Slice
 10
61.1207607098813
 20
89.7846075957248
 30
0
 11
65.8854880342375
 21
98.3804032304353
 31
0
  0
ARC
  5
0
  8
Slice
 10
67.372341536404
 20
97.5562268760697
 30
0
 40
1.69999999999998
 50
120.000000002051
 51
151.00000000205
  0
LINE
  5
0
  8
Slice
 10
66.5223415363513
 20
99.0284700624728
 30
0
 11
89.1911863207013
 21
112.116333702017
 31
0
  0
ARC
  5
0
  8
Slice
 10
90.041186320754
 20
110.644090515613
 30
0
 40
1.69999999865493
 50
29.9999999994471
 51
120.00000000205
  0
ARC
  5
0
  8
Slice
 10
-50.7999999939435
 20
133.300000001491
 30
0
 40
1.70000000002202
 50
90
 51
179.999999997397
  0
ARC
  5
0
  8
Slice
 10
-50.7999999951328
 20
107.124272724026
 30
0
 40
1.70000000000001
 50
179.999999997397
 51
210.999999997394
  0
ARC
  5
0
  8
Slice
 10
101.169527674764
 20
23.769237890655
 30
0
 40
2.49999999999998
 50
120.000000002602
 51
210.000000002603
  0
LINE
  5
0
  8
Slice
 10
37.8999999939799
 20
135.000000001513
 30
0
 11
29.9999999939799
 21
135.000000001513
 31
0
  0
ARC
  5
0
  8
Slice
 10
-42.0999999955155
 20
98.7000000010957
 30
0
 40
1.69999999999999
 50
-90.0000000026034
 51
-2.60263667035448e-09
  0
ARC
  5
0
  8
Slice
 10
108.345800490914
 20
9.73956876553744
 30
0
 40
1.70000000000004
 50
-149.999999997397
 51
-90.999999997398
  0
ARC
  5
0
  8
Slice
 10
103.432220980494
 20
11.4501381256534
 30
0
 40
1.70000000000001
 50
-59.9999999979503
 51
30.0000000020498
  0
LINE
  5
0
  8
Slice
 10
98.604464166507
 20
23.2120582131646
 30
0
 11
104.904464166897
 21
12.3001381257061
 31
0
  0
ARC
  5
0
  8
Slice
 10
50.7999999939435
 20
133.300000001491
 30
0
 40
1.70000000000002
 50
2.60263667035445e-09
 51
90
  0
LINE
  5
0
  8
Slice
 10
52.4999999939435
 20
133.300000001568
 30
0
 11
52.4999999951328
 21
107.124272724103
 31
0
  0
ARC
  5
0
  8
Slice
 10
50.7999999951328
 20
107.124272724026
 30
0
 40
1.69999999999996
 50
-30.9999999973938
 51
2.60263667035447e-09
  0
LINE
  5
0
  8
Slice
 10
52.2571844063662
 20
106.248707996745
 30
0
 11
47.1953706838297
 21
97.8244352739801
 31
0
  0
ARC
  5
0
  8
Slice
 10
45.7381862725963
 20
98.7000000012611
 30
0
 40
1.70000000000003
 50
-89.9999999973971
 51
-30.9999999973985
  0
LINE
  5
0
  8
Slice
 10
45.7381862726736
 20
97.000000001261
 30
0
 11
42.0999999955928
 21
97.0000000010958
 31
0
  0
ARC
  5
0
  8
Slice
 10
42.0999999955155
 20
98.7000000010957
 30
0
 40
1.7
 50
-179.999999997397
 51
-89.9999999973966
  0
LINE
  5
0
  8
Slice
 10
40.3999999955155
 20
98.7000000010185
 30
0
 11
40.3999999954792
 21
99.5000000010185
 31
0
  0
ARC
  5
0
  8
Slice
 10
37.8999999954792
 20
99.5000000009049
 30
0
 40
2.5
 50
-89.9999999973971
 51
2.60290488465987e-09
  0
LINE
  5
0
  8
Slice
 10
37.8999999955928
 20
97.0000000009049
 30
0
 11
29.9999999955928
 21
97.000000000546
 31
0
  0
ARC
  5
0
  8
Slice
 10
29.9999999954792
 20
99.500000000546
 30
0
 40
2.5
 50
-179.999999997397
 51
-89.9999999973969
  0
LINE
  5
0
  8
Slice
 10
27.4999999954792
 20
99.5000000004324
 30
0
 11
27.4999999939799
 21
132.500000000432
 31
0
  0
ARC
  5
0
  8
Slice
 10
29.9999999939799
 20
132.500000000546
 30
0
 40
2.50000000096708
 50
90
 51
180.000000002603
  0
ARC
  5
0
  8
Slice
 10
-45.7381862725963
 20
98.7000000012611
 30
0
 40
1.70000000000003
 50
-149.000000002601
 51
-90.0000000026029
  0
ARC
  5
0
  8
Slice
 10
-29.9999999954792
 20
99.500000000546
 30
0
 40
2.5
 50
-90.0000000026032
 51
-2.60257919586048e-09
  0
LINE
  5
0
  8
Slice
 10
83.8332083625227
 20
8.7966237576268
 30
0
 11
81.283956091176
 21
13.2120582125449
 31
0
  0
LINE
  5
0
  8
Slice
 10
49.5347038179589
 20
69.9033762474297
 30
0
 11
57.0361992751164
 21
82.8963475130471
 31
0
  0
ARC
  5
0
  8
Slice
 10
58.5084424615804
 20
82.0463475130998
 30
0
 40
1.70000000000004
 50
120.000000002049
 51
150.000000002049
  0
ARC
  5
0
  8
Slice
 10
51.0069470044229
 20
69.0533762474823
 30
0
 40
1.70000000000007
 50
150.000000002049
 51
210.000000002049
  0
ARC
  5
0
  8
Slice
 10
-37.8999999939799
 20
132.500000000905
 30
0
 40
2.50000000060814
 50
89.9999999999998
 51
179.999999997397
  0
ARC
  5
0
  8
Slice
 10
-42.0999999939435
 20
133.300000001096
 30
0
 40
1.7
 50
-2.60167876212102e-09
 51
90
  0
ARC
  5
0
  8
Slice
 10
-29.9999999939799
 20
132.500000000546
 30
0
 40
2.5
 50
-2.60290488465985e-09
 51
90
  0
LINE
  5
0
  8
Slice
 10
-52.2571844063662
 20
106.248707996745
 30
0
 11
-47.1953706838297
 21
97.8244352739801
 31
0
  0
LINE
  5
0
  8
Slice
 10
-45.7381862726736
 20
97.000000001261
 30
0
 11
-42.0999999955928
 21
97.0000000010958
 31
0
  0
LINE
  5
0
  8
Slice
 10
-40.3999999939799
 20
132.500000001018
 30
0
 11
-40.3999999939435
 21
133.300000001019
 31
0
  0
LINE
  5
0
  8
Slice
 10
68.782220978347
 20
71.4656986066754
 30
0
 11
54.4061992758223
 21
63.165698606161
 31
0
  0
ARC
  5
0
  8
Slice
 10
106.526707352231
 20
12.8903305051067
 30
0
 40
1.70000000000001
 50
120.000000002603
 51
210.000000002603
  0
ARC
  5
0
  8
Slice
 10
67.9322209782943
 20
72.9379417930785
 30
0
 40
1.69999999999999
 50
-59.9999999979494
 51
30.0000000020503
  0
LINE
  5
0
  8
Slice
 10
-37.8999999955928
 20
97.0000000009049
 30
0
 11
-29.9999999955928
 21
97.000000000546
 31
0
  0
ARC
  5
0
  8
Slice
 10
-42.0999999955155
 20
98.7000000010957
 30
0
 40
1.69999999999999
 50
-90.0000000026036
 51
-2.60263667035447e-09
  0
LINE
  5
0
  8
Slice
 10
50.7999999939435
 20
135.000000001513
 30
0
 11
42.0999999939435
 21
135.000000001513
 31
0
  0
LINE
  5
0
  8
Slice
 10
142.313429509408
 20
23.5059094923777
 30
0
 11
137.963429509481
 21
31.0403305053443
 31
0
  0
LINE
  5
0
  8
Slice
 10
95.8634295059581
 20
103.95966950196
 30
0
 11
91.5134295060309
 21
111.494090514927
 31
0
  0
ARC
  5
0
  8
Slice
 10
29.1999999965905
 20
95.3000000013297
 30
0
 40
1.69999999999999
 50
90.0000000020494
 51
180.000000002049
  0
LINE
  5
0
  8
Slice
 10
-40.3999999955155
 20
98.7000000010185
 30
0
 11
-40.3999999954792
 21
99.5000000010185
 31
0
  0
ARC
  5
0
  8
Slice
 10
105.119527675075
 20
16.9276372009374
 30
0
 40
2.5
 50
-149.999999997397
 51
-59.9999999973968
  0
ARC
  5
0
  8
Slice
 10
34.298504539562
 20
78.7000000015121
 30
0
 40
1.69999999999999
 50
-89.9999999979501
 51
-29.999999997949
  0
ARC
  5
0
  8
Slice
 10
29.1999999971844
 20
78.7000000013297
 30
0
 40
1.7
 50
-179.99999999795
 51
-89.99999999795
  0
ARC
  5
0
  8
Slice
 10
29.9999999954792
 20
99.500000000546
 30
0
 40
2.49999999999998
 50
-179.999999997398
 51
-89.9999999973966
  0
ARC
  5
0
  8
Slice
 10
41.7999999967196
 20
91.6929712671296
 30
0
 40
1.69999999999998
 50
-29.9999999979516
 51
2.04944466552203e-09
  0
ARC
  5
0
  8
Slice
 10
37.8999999954792
 20
99.5000000009049
 30
0
 40
2.5
 50
-89.9999999973969
 51
2.60323057345924e-09
  0
ARC
  5
0
  8
Slice
 10
42.0999999964689
 20
98.7000000017912
 30
0
 40
1.70000000000001
 50
-179.99999999795
 51
-89.9999999979506
  0
ARC
  5
0
  8
Slice
 10
42.0999999955155
 20
98.7000000010957
 30
0
 40
1.70000000000001
 50
-179.999999997397
 51
-89.9999999973969
  0
ARC
  5
0
  8
Slice
 10
41.7999999965905
 20
95.3000000017805
 30
0
 40
1.70000000000002
 50
2.04992361963877e-09
 51
90.0000000020497
  0
ARC
  5
0
  8
Slice
 10
45.7381862735497
 20
98.7000000019214
 30
0
 40
1.69999999999997
 50
-89.9999999979498
 51
-30.9999999979496
  0
ARC
  5
0
  8
Slice
 10
45.7381862725963
 20
98.7000000012611
 30
0
 40
1.70000000000005
 50
-89.9999999973971
 51
-30.9999999973985
  0
LINE
  5
0
  8
Slice
 10
34.2985045396228
 20
77.0000000015121
 30
0
 11
29.1999999972452
 21
77.0000000013297
 31
0
  0
LINE
  5
0
  8
Slice
 10
27.4999999971844
 20
78.7000000012689
 30
0
 11
27.4999999965905
 21
95.3000000012689
 31
0
  0
LINE
  5
0
  8
Slice
 10
43.4999999965905
 20
95.3000000018413
 30
0
 11
43.4999999967196
 21
91.6929712671904
 31
0
  0
LINE
  5
0
  8
Slice
 10
45.7381862736105
 20
97.0000000019214
 30
0
 11
42.0999999965297
 21
97.0000000017913
 31
0
  0
LINE
  5
0
  8
Slice
 10
29.1999999965297
 20
97.0000000013297
 30
0
 11
41.7999999965297
 21
97.0000000017805
 31
0
  0
LINE
  5
0
  8
Slice
 10
40.3999999955155
 20
98.7000000010185
 30
0
 11
40.3999999954792
 21
99.5000000010185
 31
0
  0
LINE
  5
0
  8
Slice
 10
43.2722431831835
 20
90.8429712671823
 30
0
 11
35.770747726026
 21
77.8500000015648
 31
0
  0
LINE
  5
0
  8
Slice
 10
37.8999999955928
 20
97.0000000009049
 30
0
 11
29.9999999955928
 21
97.000000000546
 31
0
  0
LINE
  5
0
  8
Slice
 10
45.7381862726736
 20
97.000000001261
 30
0
 11
42.0999999955928
 21
97.0000000010958
 31
0
  0
LINE
  5
0
  8
Slice
 10
-2.77555756156289e-14
 20
14.0000000016707
 30
0
 11
-2.77555756156289e-14
 21
56.500094384204
 31
0
  0
ARC
  5
0
  8
Slice
 10
3.07189328811755e-15
 20
60.0000943842036
 30
0
 40
3.49999999999963
 50
-90.0000000000005
 51
90.0000000000005
  0
LINE
  5
0
  8
Slice
 10
-2.77555756156289e-14
 20
63.500094384204
 30
0
 11
-2.77555756156289e-14
 21
154
 31
0
  0
ARC
  5
0
  8
Slice
 10
-2.72456700639443e-13
 20
157.5
 30
0
 40
3.5
 50
-89.999999999996
 51
89.999999999996
  0
LINE
  5
0
  8
Slice
 10
-2.77555756156289e-14
 20
161
 30
0
 11
-2.77555756156289e-14
 21
200
 31
0
  0
LINE
  5
0
  8
Slice
 10
-2.77555756156289e-14
 20
200
 30
0
 11
26.2761869112312
 21
200
 31
0
  0
ARC
  5
0
  8
Slice
 10
26.2761869112312
 20
200.5
 30
0
 40
0.500000000000028
 50
-90
 51
-59.9999999983949
  0
LINE
  5
0
  8
Slice
 10
26.5261869112432
 20
200.066987298115
 30
0
 11
57.6980391979615
 21
218.064064608136
 31
0
  0
LINE
  5
0
  8
Slice
 10
57.6980391979615
 20
218.064064608136
 30
0
 11
59.0640646017643
 21
217.698039204394
 31
0
  0
LINE
  5
0
  8
Slice
 10
59.0640646017643
 20
217.698039204394
 30
0
 11
77.0611419123953
 21
186.526186917305
 31
0
  0
ARC
  5
0
  8
Slice
 10
77.4941546142783
 20
186.776186917321
 30
0
 40
0.500000000000032
 50
-149.999999997881
 51
-119.999999998958
  0
LINE
  5
0
  8
Slice
 10
77.244154614286
 20
186.343174215424
 30
0
 11
99.5669872972508
 21
173.455080757372
 31
0
  0
ARC
  5
0
  8
Slice
 10
99.3169872972585
 20
173.022068055475
 30
0
 40
0.499999999999873
 50
-29.9999999989479
 51
60.0000000010388
  0
LINE
  5
0
  8
Slice
 10
99.7499999991553
 20
172.772068055483
 30
0
 11
72.7499999999921
 21
126.00669625064
 31
0
  0
ARC
  5
0
  8
Slice
 10
72.3169872980954
 20
126.256696250633
 30
0
 40
0.500000000000214
 50
-119.999999998954
 51
-29.9999999990466
  0
LINE
  5
0
  8
Slice
 10
72.0669872981032
 20
125.823683548736
 30
0
 11
56.2891663764029
 21
134.933012704729
 31
0
  0
ARC
  5
0
  8
Slice
 10
56.0391663764106
 20
134.500000002832
 30
0
 40
0.500000000000283
 50
60.000000001036
 51
90.0000000025998
  0
LINE
  5
0
  8
Slice
 10
56.0391663763879
 20
135.000000002832
 30
0
 11
27.4999999983157
 21
135.000000001536
 31
0
  0
ARC
  5
0
  8
Slice
 10
27.4999999983384
 20
134.500000001535
 30
0
 40
0.500000000000938
 50
90.0000000026014
 51
180.000000002524
  0
LINE
  5
0
  8
Slice
 10
26.9999999983384
 20
134.500000001513
 30
0
 11
27.0000000016841
 21
60.8574098154048
 31
0
  0
LINE
  5
0
  8
Slice
 10
27.0000000016841
 20
60.8574098154048
 30
0
 11
18.7607646933614
 21
46.5866356447224
 31
0
  0
LINE
  5
0
  8
Slice
 10
18.7607646933614
 20
46.5866356447224
 30
0
 11
11.0786367568656
 21
24.5908872858761
 31
0
  0
LINE
  5
0
  8
Slice
 10
11.0786367568656
 20
24.5908872858761
 30
0
 11
6.8855042280811
 21
17.3281687026892
 31
0
  0
LINE
  5
0
  8
Slice
 10
6.8855042280811
 20
17.3281687026892
 30
0
 11
6.09399787727809
 21
16.457239488207
 31
0
  0
LINE
  5
0
  8
Slice
 10
6.09399787727809
 20
16.457239488207
 30
0
 11
4.74527107628546
 21
15.5878948455093
 31
0
  0
LINE
  5
0
  8
Slice
 10
4.74527107628546
 20
15.5878948455093
 30
0
 11
3.57613678119506
 21
14.9128948454771
 31
0
  0
LINE
  5
0
  8
Slice
 10
3.57613678119506
 20
14.9128948454771
 30
0
 11
1.24877282077653
 21
14.0000000017274
 31
0
  0
LINE
  5
0
  8
Slice
 10
1.24877282077653
 20
14.0000000017274
 30
0
 11
-2.77555756156289e-14
 21
14.0000000016707
 31
0
  0
ARC
  5
0
  8
Slice
 10
82.0096189431149
 20
172.044826718838
 30
0
 40
3.5
 50
180
 51
360
  0
ARC
  5
0
  8
Slice
 10
82.0096189431149
 20
172.044826718838
 30
0
 40
3.5
 50
0
 51
180
  0
ARC
  5
0
  8
Slice
 10
51.9756073342895
 20
193.975607339858
 30
0
 40
3.50000000000001
 50
180
 51
360
  0
ARC
  5
0
  8
Slice
 10
51.9756073342895
 20
193.975607339858
 30
0
 40
3.5
 50
0
 51
180
  0
ARC
  5
0
  8
Slice
 10
64.5096189430991
 20
141.733937586356
 30
0
 40
3.5
 50
180
 51
360
  0
ARC
  5
0
  8
Slice
 10
64.5096189430991
 20
141.733937586356
 30
0
 40
3.50000000000001
 50
0
 51
180
  0
ENDSEC
  0
EOF
